<svg width="185" height="48" viewBox="0 0 185 48" fill="none" xmlns="http://www.w3.org/2000/svg">
<path d="M4 8.87543L23.2725 39.7342" stroke="#FFFEFE" stroke-width="8.37829"/>
<path d="M28.4532 1C26.0137 15.5853 35.7414 35.7356 20.7817 43.9281" stroke="#FFFEFE" stroke-width="8.37829"/>
<path d="M50.1993 35.4998V30.8033C50.1993 30.1597 50.0739 29.5542 49.823 28.9869C49.583 28.4088 49.2502 27.9069 48.8248 27.4815C48.3993 27.056 47.8975 26.7233 47.3193 26.4833C46.752 26.2324 46.1466 26.1069 45.5029 26.1069C44.8593 26.1069 44.2484 26.2324 43.6702 26.4833C43.1029 26.7233 42.6065 27.056 42.1811 27.4815C41.7556 27.9069 41.4174 28.4088 41.1665 28.9869C40.9265 29.5542 40.8065 30.1597 40.8065 30.8033V35.4998H50.1993ZM54.8958 44.8763H50.1993V40.1798H40.8065V44.8763H36.1264V30.8033C36.1264 29.5051 36.3719 28.2888 36.8628 27.1542C37.3537 26.0087 38.0192 25.0105 38.8592 24.1596C39.7101 23.3087 40.7028 22.6378 41.8374 22.1469C42.9829 21.6559 44.2047 21.4105 45.5029 21.4105C46.8011 21.4105 48.0175 21.6559 49.1521 22.1469C50.2975 22.6378 51.2957 23.3087 52.1466 24.1596C52.9976 25.0105 53.6685 26.0087 54.1594 27.1542C54.6503 28.2888 54.8958 29.5051 54.8958 30.8033V44.8763ZM75.3997 44.8763H58.9704V21.4105H63.6668V40.1798H75.3997V44.8763ZM100.027 33.2415C100.027 34.3543 99.88 35.4289 99.5855 36.4652C99.3018 37.4907 98.8982 38.4562 98.3745 39.3616C97.8509 40.2562 97.2182 41.0744 96.4763 41.8162C95.7345 42.558 94.9163 43.1962 94.0217 43.7308C93.1272 44.2544 92.1617 44.6581 91.1253 44.9417C90.089 45.2363 89.0144 45.3835 87.9017 45.3835C86.7889 45.3835 85.7144 45.2363 84.678 44.9417C83.6525 44.6581 82.6871 44.2544 81.7816 43.7308C80.887 43.1962 80.0688 42.558 79.327 41.8162C78.5852 41.0744 77.947 40.2562 77.4124 39.3616C76.8888 38.4562 76.4797 37.4907 76.1851 36.4652C75.9015 35.4289 75.7597 34.3543 75.7597 33.2415C75.7597 32.1288 75.9015 31.0542 76.1851 30.0179C76.4797 28.9815 76.8888 28.016 77.4124 27.1215C77.947 26.2269 78.5852 25.4087 79.327 24.6669C80.0688 23.9251 80.887 23.2923 81.7816 22.7687C82.6871 22.245 83.6525 21.8414 84.678 21.5578C85.7144 21.2632 86.7889 21.1159 87.9017 21.1159C89.0144 21.1159 90.089 21.2632 91.1253 21.5578C92.1617 21.8414 93.1272 22.245 94.0217 22.7687C94.9163 23.2923 95.7345 23.9251 96.4763 24.6669C97.2182 25.4087 97.8509 26.2269 98.3745 27.1215C98.8982 28.016 99.3018 28.9815 99.5855 30.0179C99.88 31.0542 100.027 32.1288 100.027 33.2415ZM95.3636 33.2415C95.3636 32.2161 95.1672 31.2506 94.7745 30.3451C94.3818 29.4288 93.8472 28.6379 93.1708 27.9724C92.5054 27.296 91.7144 26.7615 90.7981 26.3687C89.8926 25.976 88.9271 25.7796 87.9017 25.7796C86.8653 25.7796 85.8944 25.976 84.9889 26.3687C84.0834 26.7615 83.2925 27.296 82.6161 27.9724C81.9398 28.6379 81.4052 29.4288 81.0125 30.3451C80.6197 31.2506 80.4234 32.2161 80.4234 33.2415C80.4234 34.267 80.6197 35.2325 81.0125 36.138C81.4052 37.0325 81.9398 37.818 82.6161 38.4943C83.2925 39.1707 84.0834 39.7053 84.9889 40.098C85.8944 40.4907 86.8653 40.6871 87.9017 40.6871C88.9271 40.6871 89.8926 40.4907 90.7981 40.098C91.7144 39.7053 92.5054 39.1707 93.1708 38.4943C93.8472 37.818 94.3818 37.0325 94.7745 36.138C95.1672 35.2325 95.3636 34.267 95.3636 33.2415ZM107.816 26.1069V35.4998H112.513C113.157 35.4998 113.762 35.3798 114.329 35.1398C114.897 34.8888 115.393 34.5507 115.818 34.1252C116.244 33.6997 116.577 33.2034 116.817 32.6361C117.068 32.0579 117.193 31.447 117.193 30.8033C117.193 30.1597 117.068 29.5542 116.817 28.9869C116.577 28.4088 116.244 27.9069 115.818 27.4815C115.393 27.056 114.897 26.7233 114.329 26.4833C113.762 26.2324 113.157 26.1069 112.513 26.1069H107.816ZM107.816 44.8763H103.12V21.4105H112.513C113.375 21.4105 114.204 21.525 115 21.7541C115.797 21.9723 116.538 22.2887 117.226 22.7032C117.924 23.1069 118.557 23.5978 119.124 24.176C119.702 24.7433 120.193 25.376 120.597 26.0742C121.011 26.7724 121.328 27.5197 121.546 28.316C121.775 29.1124 121.889 29.9415 121.889 30.8033C121.889 31.6106 121.786 32.3961 121.578 33.1597C121.382 33.9234 121.093 34.6488 120.711 35.3361C120.34 36.0234 119.882 36.6561 119.337 37.2343C118.791 37.8125 118.18 38.3143 117.504 38.7398L120.106 44.8763H115.115L113.069 40.1471L107.816 40.1798V44.8763ZM129.679 44.8763H124.982V21.4105H129.679V44.8763ZM150.804 44.8763H132.64L142.655 26.1069H132.64V21.4105H150.804L140.822 40.1798H150.804V44.8763ZM167.528 35.4998V30.8033C167.528 30.1597 167.403 29.5542 167.152 28.9869C166.912 28.4088 166.579 27.9069 166.154 27.4815C165.728 27.056 165.226 26.7233 164.648 26.4833C164.081 26.2324 163.475 26.1069 162.832 26.1069C162.188 26.1069 161.577 26.2324 160.999 26.4833C160.432 26.7233 159.935 27.056 159.51 27.4815C159.084 27.9069 158.746 28.4088 158.495 28.9869C158.255 29.5542 158.135 30.1597 158.135 30.8033V35.4998H167.528ZM172.225 44.8763H167.528V40.1798H158.135V44.8763H153.455V30.8033C153.455 29.5051 153.701 28.2888 154.192 27.1542C154.683 26.0087 155.348 25.0105 156.188 24.1596C157.039 23.3087 158.032 22.6378 159.166 22.1469C160.312 21.6559 161.534 21.4105 162.832 21.4105C164.13 21.4105 165.346 21.6559 166.481 22.1469C167.626 22.6378 168.625 23.3087 169.475 24.1596C170.326 25.0105 170.997 26.0087 171.488 27.1542C171.979 28.2888 172.225 29.5051 172.225 30.8033V44.8763Z" fill="#FFFEFE"/>
</svg>
