<svg width="106" height="28" viewBox="0 0 106 28" fill="none" xmlns="http://www.w3.org/2000/svg">
<path d="M3 5.47468L13.9503 23.0081" stroke="#7A6174" stroke-width="4.76039"/>
<path d="M16.8939 1C15.5078 9.28708 21.0349 20.7362 12.5351 25.391" stroke="#7A6174" stroke-width="4.76039"/>
<path d="M29.2496 20.8521V18.1837C29.2496 17.818 29.1783 17.474 29.0358 17.1517C28.8994 16.8232 28.7104 16.538 28.4686 16.2963C28.2269 16.0546 27.9418 15.8655 27.6132 15.7291C27.2909 15.5866 26.9469 15.5153 26.5812 15.5153C26.2155 15.5153 25.8684 15.5866 25.5399 15.7291C25.2176 15.8655 24.9355 16.0546 24.6938 16.2963C24.452 16.538 24.2599 16.8232 24.1173 17.1517C23.981 17.474 23.9128 17.818 23.9128 18.1837V20.8521H29.2496ZM31.9181 26.1797H29.2496V23.5113H23.9128V26.1797H21.2537V18.1837C21.2537 17.4461 21.3931 16.755 21.6721 16.1103C21.951 15.4595 22.3291 14.8924 22.8064 14.4089C23.2898 13.9254 23.8539 13.5442 24.4985 13.2653C25.1494 12.9863 25.8436 12.8469 26.5812 12.8469C27.3188 12.8469 28.0099 12.9863 28.6546 13.2653C29.3054 13.5442 29.8726 13.9254 30.3561 14.4089C30.8395 14.8924 31.2207 15.4595 31.4997 16.1103C31.7786 16.755 31.9181 17.4461 31.9181 18.1837V26.1797ZM43.568 26.1797H34.2332V12.8469H36.9016V23.5113H43.568V26.1797ZM57.561 19.5691C57.561 20.2013 57.4773 20.8119 57.3099 21.4007C57.1488 21.9834 56.9194 22.5319 56.6219 23.0464C56.3244 23.5547 55.9649 24.0195 55.5434 24.441C55.1219 24.8625 54.657 25.2251 54.1487 25.5289C53.6405 25.8264 53.0919 26.0557 52.503 26.2169C51.9142 26.3842 51.3036 26.4679 50.6714 26.4679C50.0392 26.4679 49.4286 26.3842 48.8398 26.2169C48.2571 26.0557 47.7086 25.8264 47.1941 25.5289C46.6858 25.2251 46.2209 24.8625 45.7994 24.441C45.3779 24.0195 45.0153 23.5547 44.7116 23.0464C44.4141 22.5319 44.1816 21.9834 44.0143 21.4007C43.8531 20.8119 43.7726 20.2013 43.7726 19.5691C43.7726 18.9368 43.8531 18.3263 44.0143 17.7374C44.1816 17.1486 44.4141 16.6 44.7116 16.0918C45.0153 15.5835 45.3779 15.1186 45.7994 14.6971C46.2209 14.2756 46.6858 13.9161 47.1941 13.6186C47.7086 13.3211 48.2571 13.0917 48.8398 12.9306C49.4286 12.7632 50.0392 12.6795 50.6714 12.6795C51.3036 12.6795 51.9142 12.7632 52.503 12.9306C53.0919 13.0917 53.6405 13.3211 54.1487 13.6186C54.657 13.9161 55.1219 14.2756 55.5434 14.6971C55.9649 15.1186 56.3244 15.5835 56.6219 16.0918C56.9194 16.6 57.1488 17.1486 57.3099 17.7374C57.4773 18.3263 57.561 18.9368 57.561 19.5691ZM54.9111 19.5691C54.9111 18.9864 54.7996 18.4379 54.5764 17.9234C54.3533 17.4027 54.0495 16.9533 53.6652 16.5752C53.2871 16.1909 52.8378 15.8872 52.3171 15.6641C51.8026 15.4409 51.2541 15.3293 50.6714 15.3293C50.0826 15.3293 49.5309 15.4409 49.0164 15.6641C48.502 15.8872 48.0526 16.1909 47.6683 16.5752C47.284 16.9533 46.9802 17.4027 46.7571 17.9234C46.534 18.4379 46.4224 18.9864 46.4224 19.5691C46.4224 20.1517 46.534 20.7003 46.7571 21.2148C46.9802 21.723 47.284 22.1693 47.6683 22.5536C48.0526 22.9379 48.502 23.2416 49.0164 23.4648C49.5309 23.6879 50.0826 23.7995 50.6714 23.7995C51.2541 23.7995 51.8026 23.6879 52.3171 23.4648C52.8378 23.2416 53.2871 22.9379 53.6652 22.5536C54.0495 22.1693 54.3533 21.723 54.5764 21.2148C54.7996 20.7003 54.9111 20.1517 54.9111 19.5691ZM61.9866 15.5153V20.8521H64.6551C65.0208 20.8521 65.3648 20.784 65.6871 20.6476C66.0094 20.505 66.2914 20.3129 66.5332 20.0711C66.7749 19.8294 66.964 19.5474 67.1003 19.2251C67.2429 18.8965 67.3142 18.5494 67.3142 18.1837C67.3142 17.818 67.2429 17.474 67.1003 17.1517C66.964 16.8232 66.7749 16.538 66.5332 16.2963C66.2914 16.0546 66.0094 15.8655 65.6871 15.7291C65.3648 15.5866 65.0208 15.5153 64.6551 15.5153H61.9866ZM61.9866 26.1797H59.3182V12.8469H64.6551C65.1447 12.8469 65.6158 12.912 66.0683 13.0421C66.5208 13.1661 66.9423 13.3458 67.3328 13.5814C67.7295 13.8107 68.089 14.0897 68.4113 14.4182C68.7398 14.7405 69.0188 15.1 69.2481 15.4967C69.4836 15.8934 69.6634 16.318 69.7874 16.7705C69.9175 17.223 69.9826 17.694 69.9826 18.1837C69.9826 18.6424 69.9237 19.0887 69.806 19.5226C69.6944 19.9565 69.5301 20.3687 69.3132 20.7592C69.1024 21.1497 68.8421 21.5092 68.5322 21.8377C68.2223 22.1662 67.8751 22.4513 67.4908 22.6931L68.9692 26.1797H66.1334L64.9712 23.4927L61.9866 23.5113V26.1797ZM74.4083 26.1797H71.7399V12.8469H74.4083V26.1797ZM86.4115 26.1797H76.0912L81.7813 15.5153H76.0912V12.8469H86.4115L80.74 23.5113H86.4115V26.1797ZM95.9137 20.8521V18.1837C95.9137 17.818 95.8425 17.474 95.6999 17.1517C95.5635 16.8232 95.3745 16.538 95.1327 16.2963C94.891 16.0546 94.6059 15.8655 94.2774 15.7291C93.955 15.5866 93.611 15.5153 93.2453 15.5153C92.8796 15.5153 92.5325 15.5866 92.204 15.7291C91.8817 15.8655 91.5996 16.0546 91.3579 16.2963C91.1162 16.538 90.924 16.8232 90.7814 17.1517C90.6451 17.474 90.5769 17.818 90.5769 18.1837V20.8521H95.9137ZM98.5822 26.1797H95.9137V23.5113H90.5769V26.1797H87.9178V18.1837C87.9178 17.4461 88.0572 16.755 88.3362 16.1103C88.6151 15.4595 88.9932 14.8924 89.4705 14.4089C89.954 13.9254 90.518 13.5442 91.1627 13.2653C91.8135 12.9863 92.5077 12.8469 93.2453 12.8469C93.9829 12.8469 94.6741 12.9863 95.3187 13.2653C95.9695 13.5442 96.5367 13.9254 97.0202 14.4089C97.5036 14.8924 97.8848 15.4595 98.1638 16.1103C98.4427 16.755 98.5822 17.4461 98.5822 18.1837V26.1797Z" fill="#7A6174"/>
</svg>
